<svg width="35" height="33" viewBox="0 0 35 33" fill="none" xmlns="http://www.w3.org/2000/svg">
<rect x="4.40186" y="15.2097" width="13.9444" height="22.311" rx="2" transform="rotate(-50.9268 4.40186 15.2097)" fill="#FFDE32"/>
<path d="M26.1175 23.8597L31.6487 23.684L27.0817 29.3091L26.1175 23.8597Z" fill="#FFDE32"/>
<path d="M8.79647 9.79675L7.83232 4.34737L3.26525 9.97253L8.79647 9.79675Z" fill="#FFDE32"/>
<path d="M10.1824 19.8225C10.623 19.2798 11.4098 19.0975 12.0817 19.0471C13.0177 18.9769 14.1953 19.031 15.0911 19.3559C15.9458 19.666 17.9099 20.6692 17.3844 21.8995C16.8704 23.1029 15.0596 21.5554 14.632 21.0008C13.4521 19.4702 13.248 17.3724 14.0818 15.6386C14.339 15.1035 14.7105 14.5381 15.2493 14.2534C15.4984 14.1217 15.7789 14.1158 16.0533 14.0882C16.8144 14.0116 17.549 14.0042 18.3123 14.0644C19.6989 14.1738 21.1243 14.5039 22.0368 15.6511C22.7346 16.5283 22.7958 17.8356 22.5801 18.8966C22.3921 19.8217 21.7624 20.1937 20.8728 20.2175C20.4425 20.229 20.0494 19.7768 19.743 19.5222C19.5492 19.3611 19.4793 19.1849 19.4166 18.9456C19.1721 18.0119 19.2291 16.9695 19.2979 16.0214C19.4039 14.5621 20.0845 13.3255 20.9915 12.2084C21.2082 11.9415 21.3388 11.7598 21.681 11.6854C21.7292 11.6749 22.0264 11.5468 21.9045 11.602" stroke="white" stroke-linecap="square"/>
</svg>
