<svg width="45" height="45" viewBox="0 0 45 45" fill="none" xmlns="http://www.w3.org/2000/svg">
<path d="M44.5 22.5C44.5 32.9816 35.7816 41.5 25 41.5C14.2184 41.5 5.5 32.9816 5.5 22.5C5.5 12.0184 14.2184 3.5 25 3.5C35.7816 3.5 44.5 12.0184 44.5 22.5Z" stroke="white"/>
<circle cx="22.5" cy="22.5" r="22" stroke="white"/>
<path d="M36.5 22.5C36.5 31.863 28.4677 39.5 18.5 39.5C8.53233 39.5 0.5 31.863 0.5 22.5C0.5 13.137 8.53233 5.5 18.5 5.5C28.4677 5.5 36.5 13.137 36.5 22.5Z" stroke="white"/>
<path d="M31.5 22.5C31.5 30.2662 25.6467 36.5 18.5 36.5C11.3533 36.5 5.5 30.2662 5.5 22.5C5.5 14.7338 11.3533 8.5 18.5 8.5C25.6467 8.5 31.5 14.7338 31.5 22.5Z" stroke="white"/>
<path d="M31.5 22.5C31.5 28.5553 26.3715 33.5 20 33.5C13.6285 33.5 8.5 28.5553 8.5 22.5C8.5 16.4447 13.6285 11.5 20 11.5C26.3715 11.5 31.5 16.4447 31.5 22.5Z" stroke="white"/>
<circle cx="24" cy="21" r="7.5" stroke="white"/>
<path d="M25.5 22.5C25.5 23.2586 25.0614 23.9964 24.2488 24.5653C23.4378 25.133 22.2907 25.5 21 25.5C19.7093 25.5 18.5622 25.133 17.7512 24.5653C16.9386 23.9964 16.5 23.2586 16.5 22.5C16.5 21.7414 16.9386 21.0036 17.7512 20.4347C18.5622 19.867 19.7093 19.5 21 19.5C22.2907 19.5 23.4378 19.867 24.2488 20.4347C25.0614 21.0036 25.5 21.7414 25.5 22.5Z" stroke="white"/>
<circle cx="22.5" cy="22.5" r="1" fill="#E81674" stroke="#E81674"/>
</svg>
