<svg width="35" height="39" viewBox="0 0 35 39" fill="none" xmlns="http://www.w3.org/2000/svg">
<path d="M15.1434 2.1501C18.9456 1.29181 19.9774 4.84561 20.0181 6.7298C20.0574 7.99037 22.9017 8.50717 24.3189 8.608C25.67 7.75003 28.892 6.65965 30.9716 9.1619C33.0511 11.6641 30.3187 13.8053 28.6926 14.563C29.9925 15.7843 27.9481 19.173 26.7634 20.7147C29.3836 22.4169 27.9862 25.6259 26.96 27.0176L24.3587 27.3163C23.675 27.4827 22.572 28.9711 23.732 29.8921C25.182 31.0434 25.8796 35.971 20.8519 36.9436C16.8297 37.7218 15.4088 35.0648 15.2012 33.6391C13.26 34.1783 10.9082 32.5946 9.9749 31.7354C8.02392 31.9594 3.80718 31.732 2.5481 29.0301C1.28902 26.3282 5.27701 24.1044 7.42839 23.3303L7.57962 21.2044C5.75435 20.228 5.67967 19.5776 5.48116 16.7013C5.32235 14.4001 8.4341 13.7266 10.0098 13.6774C8.87024 12.016 11.0045 8.95085 12.2141 7.62593C11.6063 6.15828 11.3413 3.0084 15.1434 2.1501Z" fill="#FF1EBC" stroke="#FF1EBC"/>
<path d="M11.9844 15.9546C12.9091 17.1223 13.783 19.9123 9.88028 21.731" stroke="#DEDBF0" stroke-linecap="round"/>
<path d="M8.22803 24.5562C9.46977 25.4239 11.5878 27.6494 10.1261 29.6094" stroke="#DEDBF0" stroke-linecap="round"/>
<path d="M16.9025 32.3893C17.52 31.2642 19.2302 29.2492 21.1305 30.1907" stroke="#DEDBF0" stroke-linecap="round"/>
<path d="M24.0618 21.2884C22.6609 21.7128 20.3591 23.2423 22.3585 25.9646" stroke="#DEDBF0" stroke-linecap="round"/>
<path d="M17.6881 13.9817C18.7082 14.6025 19.6646 12.8323 19.6646 12.8323C19.2809 13.3156 18.7884 14.3825 19.8887 14.7833" stroke="#DEDBF0" stroke-linecap="round"/>
<circle cx="23.8161" cy="13.4099" r="0.585494" transform="rotate(20.0145 23.8161 13.4099)" fill="#D9D9D9"/>
<circle cx="16.6644" cy="10.8047" r="0.585494" transform="rotate(20.0145 16.6644 10.8047)" fill="#D9D9D9"/>
<circle cx="19.5643" cy="13.1075" r="0.585494" transform="rotate(20.0145 19.5643 13.1075)" fill="#DEDBF0"/>
</svg>
