<svg width="88" height="88" viewBox="0 0 88 88" fill="none" xmlns="http://www.w3.org/2000/svg">
<g clip-path="url(#clip0_173_4)">
<path d="M76.2084 2.04865C71.1529 -0.385569 65.91 -0.572696 60.8544 1.11249C54.8627 3.35941 49.6198 8.41497 46.0622 16.0919L44.0025 20.3984L41.9429 16.0919C38.1981 8.6021 33.1426 3.35941 26.9635 1.29962C21.908 -0.572871 16.6651 -0.198268 11.6095 2.23578C2.80918 6.35518 -4.68061 17.4025 3.55803 34.4417C4.49419 36.3141 6.55398 37.063 8.42629 36.1268C10.2988 35.1907 11.0476 33.1309 10.1115 31.2586C5.05592 20.9601 6.92841 12.5342 14.7926 8.7894C18.163 7.29152 21.5334 6.91691 24.7164 8.22767C28.8359 9.53843 32.5807 13.4705 35.3893 19.275L39.8831 28.8244L14.2309 82.7504C13.2947 84.6229 14.0436 86.6825 15.9161 87.6186C16.2905 87.8059 16.8522 87.9931 17.414 87.9931C18.7247 87.9931 20.0353 87.244 20.7843 85.9335L44.0025 37.4376L67.2208 85.9336C67.9698 87.2444 69.2804 87.9932 70.5911 87.9932C71.1529 87.9932 71.7146 87.8059 72.2763 87.6188C74.1488 86.6827 74.8977 84.6229 73.9615 82.7506L48.1219 28.8245L52.8031 19.0878C55.6117 13.2832 59.1694 9.53843 63.4759 8.04055C66.4719 6.91709 70.0294 7.29152 73.2126 8.78958C81.0769 12.5344 82.762 20.9603 77.8938 31.2588C76.9576 33.1312 77.7065 35.1909 79.579 36.127C81.4515 37.0632 83.5111 36.3143 84.4472 34.4418C92.6859 17.4025 85.1961 6.35518 76.2084 2.04865Z" fill="#0C00E8"/>
</g>
<defs>
<clipPath id="clip0_173_4">
<rect width="88" height="88" fill="white"/>
</clipPath>
</defs>
</svg>
