<svg width="44" height="50" viewBox="0 0 44 50" fill="none" xmlns="http://www.w3.org/2000/svg">
<path d="M6.03763 33.9042C6.35349 33.0078 6.20837 32.0176 5.65348 31.2493C3.20344 27.9114 -3.01983 18.1283 1.7522 10.4026C7.59132 0.943883 20.5928 -2.71838 31.9978 2.15609C43.4029 7.03056 45.3919 21.7564 43.2321 26.2211C41.3114 30.1907 36.5906 34.5274 32.7747 36.6189C31.921 37.0884 31.3234 37.9164 31.2124 38.8896L30.3161 46.8202C30.1368 48.4081 28.6941 49.552 27.1063 49.3557C22.2147 48.7325 12.1585 47.0934 5.28641 43.4738C4.02297 42.808 3.43393 41.3141 3.91199 39.9653L6.05471 33.9042H6.03763Z" fill="#373131"/>
<path d="M17.5878 17.2832C16.7768 16.6259 15.6414 16.5235 14.7024 16.9759C11.9023 18.3247 5.77295 22.115 9.98156 28.0737C14.9158 35.0652 22.8293 21.5174 17.5878 17.2747V17.2832Z" fill="#D9D9D9"/>
<path d="M27.1916 19.5797C28.1648 19.1955 29.2746 19.4431 30.0343 20.1601C32.2966 22.2858 36.9918 27.7493 31.1783 32.1713C24.366 37.3446 20.9086 22.0468 27.1831 19.5797H27.1916Z" fill="#D9D9D9"/>
<path d="M17.7159 30.1481C17.7159 30.1481 19.1415 28.0054 20.4476 27.7493C21.7623 27.4932 22.3684 31.2237 22.1208 31.642C21.8732 32.0603 17.4427 31.9152 17.7159 30.1396V30.1481Z" fill="#D9D9D9"/>
<path d="M9.52917 39.7945C9.81089 36.6103 10.5963 33.4176 12.1414 30.6005L12.4061 30.7371C11.2194 33.6737 10.6475 36.7896 9.82796 39.8372L9.53771 39.7945H9.52917Z" fill="#D9D9D9"/>
<path d="M14.3781 41.408C14.6598 38.2238 15.4451 35.031 16.9903 32.2139L17.2549 32.3505C16.0683 35.2872 15.4964 38.4031 14.6768 41.4507L14.3866 41.408H14.3781Z" fill="#D9D9D9"/>
<path d="M22.505 33.1188C22.2233 36.303 21.438 39.4957 19.8928 42.3128L19.6282 42.1763C20.8148 39.2396 21.3867 36.1237 22.2063 33.0761L22.4965 33.1188H22.505Z" fill="#D9D9D9"/>
<path d="M26.927 35.0737C26.6453 38.2579 25.86 41.4506 24.3148 44.2677L24.0502 44.1312C25.2368 41.1945 25.8087 38.0786 26.6283 35.031L26.9185 35.0737H26.927Z" fill="#D9D9D9"/>
<path d="M8.53038 32.6407C15.189 34.7835 21.8477 37.464 28.899 37.7713L28.9161 38.164C23.5465 38.4286 18.3049 36.7896 13.2939 35.0652C11.6292 34.442 9.98162 33.7847 8.38525 33.0078L8.53892 32.6407H8.53038Z" fill="#D9D9D9"/>
</svg>
