<svg width="85" height="109" viewBox="0 0 85 109" fill="none" xmlns="http://www.w3.org/2000/svg">
<path d="M20.7948 78.263C21.1129 83.2377 17.623 85.2953 17.7475 79.1262C17.7475 79.1262 13.127 16.3616 60.4865 0.95991C60.4865 0.95991 63.3505 0.234178 60.7641 4.18238C60.7643 4.18153 16.9275 17.7605 20.7948 78.263Z" fill="#428249"/>
<path d="M61.4654 77.9279C64.2678 82.049 62.3367 85.5922 59.2882 80.2269C59.2882 80.2269 26.4106 38.4742 59.2273 1.01398C59.2273 1.01398 60.9681 -0.533281 60.765 4.18152C60.7643 4.18152 30.0633 31.7348 61.4654 77.9279Z" fill="#428249"/>
<path d="M19.0862 107.837C28.5015 108.804 32.3635 105.237 34.7042 101.586C36.1961 99.2585 38.0231 95.6313 38.0231 91.5109C38.0231 84.1271 32.878 78.142 26.531 78.142C23.6903 78.142 21.9093 79.1039 19.0855 79.1039C16.262 79.1039 14.4814 78.142 11.64 78.142C5.29301 78.142 0.147964 84.1271 0.147964 91.5109C0.147964 95.6307 1.97496 99.2581 3.46687 101.586C5.8082 105.238 9.67018 108.804 19.0862 107.837Z" fill="#E64546"/>
<path d="M73.1379 105.818C82.0751 102.7 84.0588 97.8302 84.63 93.5327C84.9947 90.7926 85.1094 86.7329 83.3618 83.0016C80.2298 76.314 73.0319 73.0781 67.2842 75.7703C64.7117 76.9754 63.5071 78.6014 60.9502 79.7983C58.3934 80.9966 56.3714 80.8817 53.7995 82.087C48.0524 84.7792 45.9314 92.3808 49.0634 99.0682C50.811 102.799 54.0047 105.308 56.3433 106.783C60.0111 109.097 65.0214 110.689 73.1379 105.818Z" fill="#E64546"/>
<path d="M63.7045 1.20261C62.5736 -0.474055 59.5212 -0.392811 56.8867 1.38408C54.2521 3.16097 53.0332 5.96064 54.164 7.63731C55.2949 9.31398 58.3473 9.23273 60.9819 7.45584C63.6164 5.67895 64.8353 2.87928 63.7045 1.20261Z" fill="#225E28"/>
</svg>
