<svg width="43" height="44" viewBox="0 0 43 44" fill="none" xmlns="http://www.w3.org/2000/svg">
<path fill-rule="evenodd" clip-rule="evenodd" d="M38.6924 34.4541C38.365 34.142 38.0376 33.8612 37.7469 33.5465C37.0638 32.8069 36.472 31.997 36.0359 31.0856C35.6255 30.2277 35.3618 29.3165 35.1009 28.4029C34.8084 27.3783 34.5419 26.3477 34.1454 25.3505C33.7508 24.3582 33.4727 23.319 33.1475 22.2991C32.8157 21.259 32.506 20.2113 32.1493 19.1799C32.0322 18.8411 31.853 18.4872 31.6033 18.241C31.319 17.9607 30.9399 17.761 30.5745 17.5833C29.8471 17.2298 29.1008 16.9154 28.3502 16.5794C28.4964 16.704 28.6311 16.8393 28.7856 16.946C29.145 17.194 29.5383 17.3986 29.8717 17.6766C30.1831 17.9363 30.4391 18.2641 30.7068 18.5731C30.7394 18.6107 30.6934 18.717 30.6838 18.7914C30.6096 18.7755 30.4951 18.7848 30.4672 18.7399C30.0323 18.0414 29.3041 17.7052 28.6729 17.2463C28.0812 16.8164 27.5694 16.3018 27.1965 15.6608C27.0043 15.3302 26.7969 15.0084 26.6098 14.6752C26.5118 14.5006 26.4534 14.304 26.3583 14.1276C26.0146 13.49 25.728 12.8272 25.3124 12.2208C24.9228 11.6522 24.6787 10.984 24.3642 10.3627C24.2046 10.0473 24.0304 9.73936 23.864 9.42738C23.6605 9.04594 23.3235 8.8406 22.9408 8.66844C22.5262 8.48199 22.1315 8.2503 21.7315 8.03216C21.4989 7.9054 21.2671 7.77527 21.0451 7.63102C20.3827 7.20073 19.7316 6.75262 19.0638 6.33112C18.5828 6.02751 18.0802 5.7583 17.591 5.4675C17.4017 5.35502 17.2363 5.18852 17.0352 5.11348C16.8234 5.0345 16.5784 4.99378 16.3548 5.01357C16.1333 5.03311 15.9974 5.20437 15.9235 5.43992C15.7476 6.00107 16.0103 6.42143 16.3176 6.83595C16.4964 7.07684 16.6515 7.34268 16.8638 7.54916C17.1643 7.84144 17.5079 8.08873 17.8326 8.35605C17.9079 8.41803 17.9888 8.47575 18.0531 8.548C18.4405 8.98379 18.8207 9.4259 19.2098 9.86013C19.4556 10.1344 19.7083 10.4027 19.9656 10.6661C20.2227 10.9292 20.4667 11.2127 20.7574 11.4331C21.1471 11.7287 21.3463 12.1207 21.4262 12.5746C21.6123 13.6334 21.9354 14.6517 22.3677 15.6278C22.5893 16.1283 22.943 16.5695 23.2319 17.0406C23.316 17.1778 23.4173 17.3187 23.4494 17.4709C23.5193 17.8018 23.5591 18.1403 23.5892 18.4777C23.5965 18.5602 23.519 18.6502 23.4805 18.7367C23.4023 18.6937 23.3242 18.6508 23.2177 18.5922C22.8318 19.6473 22.9256 20.7515 23.1632 21.8847C23.2297 21.7558 23.2899 21.623 23.3654 21.4996C23.4106 21.4259 23.4799 21.3669 23.5384 21.3013C23.5853 21.3762 23.6887 21.4739 23.6694 21.522C23.5916 21.7163 23.5078 21.9264 23.3663 22.072C23.1888 22.2546 22.9671 22.4094 22.7383 22.523C22.317 22.7323 22.0616 23.0805 21.8499 23.4748C21.7232 23.7107 21.6128 23.9554 21.4759 24.235C21.7673 24.1585 22.0299 24.0913 22.2913 24.0203C22.4044 23.9896 22.5139 23.9352 22.6281 23.9235C22.68 23.9184 22.774 23.9823 22.7863 24.0309C22.7988 24.08 22.7486 24.1843 22.701 24.204C21.4821 24.7082 20.2578 24.8242 19.0911 24.0928C18.2231 23.5488 17.3921 22.944 16.5586 22.3468C16.3899 22.226 16.2729 22.025 16.1504 21.8483C15.8692 21.4426 15.5061 21.1394 15.0718 20.9105C14.156 20.428 13.2591 19.9058 12.3245 19.4639C11.8409 19.2353 11.2967 19.1275 10.7717 18.9987C10.5843 18.9528 10.3681 18.9828 10.1742 19.023C10.0633 19.0459 9.93025 19.1368 9.87746 19.2352C9.59025 19.7698 9.61914 20.291 10.0088 20.7722C10.4505 21.3176 10.9154 21.8453 11.3328 22.4087C11.6087 22.781 11.8242 23.1993 12.0566 23.6029C12.3419 24.098 12.7207 24.4883 13.2014 24.8058C14.1455 25.4293 14.9929 26.1592 15.6073 27.1359C16.102 27.9223 16.6181 28.696 17.1472 29.4597C17.5075 29.9799 17.9142 30.4673 18.2862 30.9798C18.6036 31.4173 18.8978 31.8716 19.2079 32.3146C19.6499 32.9457 20.1623 33.506 20.7962 33.9548C21.1317 34.1925 21.4149 34.507 21.7577 34.7311C22.2397 35.046 22.7343 35.3583 23.2606 35.5845C24.4354 36.0895 25.6325 36.5426 26.822 37.0128C27.2966 37.2005 27.7779 37.3713 28.2506 37.5636C28.4027 37.6255 28.545 37.7214 28.6751 37.8232C28.7184 37.8572 28.7449 37.9891 28.7166 38.0215C28.675 38.0693 28.5507 38.1094 28.5078 38.0814C27.7597 37.5949 26.8785 37.4385 26.0774 37.0853C25.7782 36.9533 25.463 36.8576 25.116 36.7846C25.3473 37.0327 25.5371 37.3531 25.8177 37.5152C26.6582 38.0009 27.5764 38.2662 28.548 38.3837C29.0743 38.4473 29.553 38.6921 30.0036 39.011C30.5667 39.4094 30.9961 39.9277 31.4588 40.42C31.4851 40.448 31.5039 40.4833 31.5469 40.545C31.4359 40.6258 31.3367 40.7197 31.2203 40.7793C29.3559 41.7348 27.3921 42.3971 25.3319 42.7694C23.5502 43.0913 21.7562 43.187 19.9499 43.0556C16.2625 42.7873 12.8509 41.6688 9.77294 39.6175C4.7 36.2366 1.51557 31.5389 0.379661 25.5322C-1.73393 14.357 5.17538 3.48083 16.1747 0.680463C28.0605 -2.3456 39.6792 5.03746 42.3791 16.5503C43.8526 22.8336 42.689 28.6699 39.0417 33.9975C38.9433 34.1412 38.8302 34.2748 38.6924 34.4541ZM14.694 20.2058C14.8801 20.1438 15.1127 20.0692 15.3434 19.989C16.353 19.6381 17.392 19.3469 18.2759 18.7175C18.4757 18.5753 18.6235 18.3136 18.713 18.0758C18.7885 17.8753 18.7358 17.6286 18.7591 17.4043C18.7665 17.3326 18.8352 17.2673 18.8759 17.1992C18.9415 17.253 19.0158 17.2996 19.0688 17.3638C19.0943 17.3946 19.0867 17.4594 19.0817 17.5076C19.0466 17.8488 19.0083 18.1899 18.9685 18.5535C19.1877 18.5252 19.4446 18.4921 19.6982 18.4594C19.6607 18.3023 19.6274 18.1848 19.6048 18.0653C19.5404 17.7258 19.4764 17.386 19.4225 17.0447C19.4136 16.988 19.4404 16.8882 19.479 16.8705C19.5296 16.8475 19.6285 16.8642 19.6702 16.9031C19.7312 16.9602 19.7842 17.048 19.7981 17.13C19.8461 17.4099 19.8804 17.6927 19.9108 17.9752C19.9399 18.2454 20.0501 18.4588 20.3132 18.5568C20.8636 18.762 21.4172 18.9585 21.9696 19.1583C22.2023 19.2425 22.4351 19.3262 22.6258 19.395C22.7746 18.9877 22.9116 18.5801 23.0727 18.1826C23.2074 17.8505 23.1325 17.5486 22.9616 17.2707C22.5398 16.585 22.0769 15.9216 21.8341 15.1426C21.7692 14.9344 21.6394 14.817 21.4436 14.7663C20.9883 14.6486 20.5354 14.5142 20.0734 14.4344C19.7209 14.3734 19.3606 14.3877 19.0432 14.6193C18.7582 14.827 18.4787 15.059 18.1617 15.2031C17.3992 15.5499 16.6148 15.8481 15.8417 16.1718C14.9917 16.5277 14.1331 16.8654 13.2996 17.2569C12.5724 17.5984 11.8738 18.0016 11.165 18.3818C11.0219 18.4587 10.8894 18.5554 10.7485 18.6452C11.9987 18.8483 13.0836 19.4179 14.1734 19.9954C14.0702 19.8285 13.9413 19.6879 13.8367 19.531C13.7845 19.4528 13.777 19.3448 13.7493 19.2503C13.8522 19.2711 13.999 19.2558 14.0504 19.3189C14.272 19.5904 14.4654 19.8849 14.694 20.2058ZM22.6539 19.7707C22.538 19.7183 22.4296 19.6605 22.3152 19.619C21.6894 19.3921 21.0553 19.1863 20.438 18.9382C20.0953 18.8006 19.7713 18.6981 19.4054 18.8267C19.3073 18.8611 19.1882 18.8304 19.0845 18.8548C18.8401 18.9125 18.5671 18.9334 18.3625 19.0609C17.549 19.5678 16.6548 19.8725 15.7592 20.1799C15.4945 20.2706 15.2311 20.3649 14.9352 20.4688C15.0288 20.524 15.0856 20.5618 15.1461 20.5925C15.6495 20.8478 16.0899 21.1837 16.396 21.6635C16.611 22.0004 16.8983 22.2525 17.2189 22.4718C17.4649 22.64 17.6793 22.8539 18.0496 22.6972C18.464 22.5219 18.9144 22.4304 19.3515 22.3113C19.6709 22.2241 19.7823 22.003 19.7823 21.6955C19.7823 21.2281 19.7777 20.7603 19.7936 20.2934C19.7964 20.2095 19.888 20.1286 19.9387 20.0463C19.9935 20.1248 20.0932 20.2018 20.0957 20.2817C20.1101 20.7389 20.104 21.1969 20.0988 21.6546C20.0973 21.784 20.0757 21.9132 20.0606 22.07C20.1911 22.0273 20.294 21.9934 20.3719 21.9679C20.3121 21.655 20.2443 21.3683 20.2068 21.0775C20.1871 20.9252 20.2064 20.7629 20.2377 20.6113C20.2477 20.5629 20.3589 20.4983 20.4126 20.5075C20.4596 20.5156 20.5169 20.6137 20.5243 20.6771C20.5562 20.9538 20.5482 21.2366 20.5985 21.5092C20.6685 21.8886 20.8307 22.217 21.2509 22.3278C21.2977 22.3402 21.3386 22.3746 21.3854 22.387C21.7209 22.4759 22.0617 22.7351 22.3851 22.3552C22.4171 22.3177 22.4792 22.3037 22.5295 22.2848C22.7227 22.212 22.8243 22.0864 22.7833 21.8689C22.7715 21.8065 22.7818 21.7395 22.7672 21.6782C22.6244 21.0824 22.6217 20.4789 22.6611 19.8725C22.6631 19.8391 22.6565 19.8053 22.6539 19.7707ZM11.5477 23.3763C11.4473 23.4342 11.3494 23.4849 11.2575 23.5449C10.8235 23.8279 10.3535 24.0616 10.0303 24.4925C9.664 24.9809 9.80527 25.7422 10.326 26.0392C10.6441 26.2206 10.9739 26.3603 11.3462 26.3895C11.7849 26.4238 12.228 26.5301 12.6543 26.3468C13.087 26.1609 13.5099 25.9518 13.9599 25.7422C13.6272 25.5007 13.2863 25.2395 12.9313 24.9993C12.5613 24.749 12.2261 24.4703 11.9933 24.0804C11.8554 23.8495 11.7058 23.6254 11.5477 23.3763ZM18.0691 23.0042C18.3048 23.1774 18.5047 23.333 18.7136 23.4754C18.9199 23.6161 19.1214 23.7781 19.3496 23.869C19.7514 24.0291 20.1717 24.1428 20.5846 24.275C20.8012 24.3444 21.0083 24.2952 21.1245 24.1131C21.3806 23.7116 21.6043 23.2893 21.8279 22.8989C21.447 22.734 21.0593 22.6101 20.7194 22.4062C20.3984 22.2136 20.1113 22.359 19.8363 22.4282C19.4285 22.5308 19.0476 22.7374 18.6486 22.881C18.4736 22.9439 18.2822 22.9606 18.0691 23.0042ZM9.3479 20.0628C8.82979 20.2967 8.53701 20.973 8.69801 21.5583C8.82954 22.0366 9.0994 22.4112 9.62954 22.4146C9.99148 22.4169 10.3542 22.2983 10.7478 22.2282C10.1891 21.5394 9.56521 20.9382 9.3479 20.0628ZM14.8532 26.5941C14.6193 26.716 14.4401 26.8068 14.2631 26.902C13.9662 27.0616 13.8976 27.2856 14.0453 27.5902C14.1921 27.8928 14.4635 28.0401 14.7637 28.1032C15.1255 28.1794 15.4986 28.2013 15.8668 28.2468C15.8757 28.2195 15.8847 28.1922 15.8936 28.1649C15.5466 27.6409 15.1996 27.1168 14.8532 26.5941Z" fill="black"/>
</svg>
