<svg width="30" height="33" viewBox="0 0 30 33" fill="none" xmlns="http://www.w3.org/2000/svg">
<path d="M4.03507 22.6588C4.24616 22.0598 4.14917 21.398 3.77833 20.8845C2.14092 18.6537 -2.01821 12.1155 1.17103 6.95224C5.07343 0.630815 13.7625 -1.81674 21.3848 1.44096C29.007 4.69866 30.3363 14.5402 28.8929 17.5241C27.6092 20.177 24.4542 23.0753 21.9039 24.4731C21.3334 24.7869 20.934 25.3403 20.8599 25.9907L20.2608 31.2909C20.141 32.3521 19.1768 33.1166 18.1156 32.9853C14.8465 32.5689 8.12574 31.4734 3.53301 29.0544C2.68863 28.6094 2.29497 27.611 2.61446 26.7096L4.04648 22.6588H4.03507Z" fill="#373131"/>
<path d="M11.7542 11.5507C11.2122 11.1114 10.4534 11.0429 9.82587 11.3453C7.95454 12.2467 3.85817 14.7799 6.67086 18.7622C9.9685 23.4348 15.2573 14.3805 11.7542 11.545V11.5507Z" fill="#D9D9D9"/>
<path d="M18.1726 13.0855C18.823 12.8287 19.5647 12.9942 20.0725 13.4734C21.5844 14.894 24.7223 18.5454 20.837 21.5007C16.2842 24.9581 13.9736 14.7343 18.1669 13.0855H18.1726Z" fill="#D9D9D9"/>
<path d="M11.8399 20.1486C11.8399 20.1486 12.7927 18.7166 13.6656 18.5454C14.5442 18.3742 14.9493 20.8674 14.7838 21.147C14.6184 21.4266 11.6573 21.3296 11.8399 20.1429V20.1486Z" fill="#D9D9D9"/>
<path d="M6.36853 26.5954C6.5568 24.4674 7.08169 22.3336 8.11434 20.4509L8.2912 20.5422C7.49817 22.5048 7.11592 24.5872 6.56821 26.624L6.37424 26.5954H6.36853Z" fill="#D9D9D9"/>
<path d="M9.60913 27.6737C9.7974 25.5457 10.3223 23.4119 11.3549 21.5292L11.5318 21.6205C10.7388 23.5831 10.3565 25.6655 9.80881 27.7023L9.61484 27.6737H9.60913Z" fill="#D9D9D9"/>
<path d="M15.0406 22.1339C14.8523 24.262 14.3274 26.3958 13.2948 28.2785L13.1179 28.1872C13.911 26.2246 14.2932 24.1422 14.8409 22.1054L15.0349 22.1339H15.0406Z" fill="#D9D9D9"/>
<path d="M17.9959 23.4405C17.8076 25.5685 17.2828 27.7023 16.2501 29.585L16.0732 29.4937C16.8663 27.5311 17.2485 25.4487 17.7962 23.4119L17.9902 23.4405H17.9959Z" fill="#D9D9D9"/>
<path d="M5.701 21.8145C10.1511 23.2465 14.6012 25.0379 19.3137 25.2433L19.3252 25.5058C15.7365 25.6826 12.2335 24.5872 8.88453 23.4347C7.772 23.0183 6.67089 22.579 5.604 22.0598L5.7067 21.8145H5.701Z" fill="#D9D9D9"/>
</svg>
